<svg xmlns="http://www.w3.org/2000/svg" version="1.1" xmlns:xlink="http://www.w3.org/1999/xlink" xmlns:svgjs="http://svgjs.dev/svgjs" width="1000" height="623" viewBox="0 0 1000 623"><g transform="matrix(1,0,0,1,-0.6060606060606233,0.2522267206477409)"><svg viewBox="0 0 396 247" data-background-color="#ffffff" preserveAspectRatio="xMidYMid meet" height="623" width="1000" xmlns="http://www.w3.org/2000/svg" xmlns:xlink="http://www.w3.org/1999/xlink"><g id="tight-bounds" transform="matrix(1,0,0,1,0.2400000000000091,-0.09999999999999432)"><svg viewBox="0 0 395.52 247.2" height="247.2" width="395.52"><g><svg></svg></g><g><svg viewBox="0 0 395.52 247.2" height="247.2" width="395.52"><g transform="matrix(1,0,0,1,111.69261971830986,47.215199999999996)"><svg viewBox="0 0 172.13476056338027 152.7696" height="152.7696" width="172.13476056338027"><g><svg viewBox="0 0 172.13476056338027 152.7696" height="152.7696" width="172.13476056338027"><g><svg viewBox="0 0 172.13476056338027 152.7696" height="152.7696" width="172.13476056338027"><g><svg viewBox="0 0 172.13476056338027 152.7696" height="152.7696" width="172.13476056338027"><g id="textblocktransform"><svg viewBox="0 0 172.13476056338027 152.7696" height="152.7696" width="172.13476056338027" id="textblock"><g><svg viewBox="0 0 172.13476056338027 152.7696" height="152.7696" width="172.13476056338027"><g transform="matrix(1,0,0,1,0,0)"><svg width="172.13476056338027" viewBox="2 -35.5 40 35.5" height="152.7696" data-palette-color="#471aa0"><path d="M9.7 0L9.7 0Q8.45 0 6.08 0 3.7 0 2.85-0.35 2-0.7 2-1.45L2-1.45 2-33Q2-34.15 5.08-34.83 8.15-35.5 11.65-35.5 15.15-35.5 16.65-34.6 18.15-33.7 18.4-32.7L18.4-32.7 21.8-19.5 22.25-19.5 25.45-32.1Q25.8-33.45 28.73-34.48 31.65-35.5 35.15-35.5 38.65-35.5 40.33-34.95 42-34.4 42-33.55L42-33.55 42-1.45Q42-0.8 39.15-0.4 36.3 0 32.2 0 28.1 0 28.1-1.45L28.1-1.45Q28.1-5.4 28.95-15.5L28.95-15.5 28.5-15.5 25.9-2.45Q25.75-1.7 24.68-1.35 23.6-1 21.45-1 19.3-1 18.82-1.3 18.35-1.6 18.2-2.45L18.2-2.45 15.5-15.5 15.05-15.5Q15.95-5.2 15.95-1.45L15.95-1.45Q15.95-0.15 9.7 0Z" opacity="1" transform="matrix(1,0,0,1,0,0)" fill="#471aa0" class="undefined-text-0" data-fill-palette-color="primary" id="text-0"></path></svg></g></svg></g></svg></g></svg></g></svg></g></svg></g></svg></g><path d="M101.526 41.215L101.526 0 348.726 0 348.726 247.2 101.526 247.2 101.526 205.985 115.303 205.985 115.303 233.423 334.949 233.423 334.949 13.777 115.303 13.777 115.303 41.215Z" fill="#471aa0" stroke="transparent" data-fill-palette-color="primary"></path></svg></g><defs></defs></svg><rect width="395.52" height="247.2" fill="none" stroke="none" visibility="hidden"></rect></g></svg></g></svg>